<svg width="30" height="30" viewBox="0 0 30 30" fill="none" xmlns="http://www.w3.org/2000/svg">
<path opacity="0.5" d="M26.1412 7.3611C26.5625 7.99166 26.5625 8.86945 26.5625 10.625V26.5625H27.1875C27.7053 26.5625 28.125 26.9823 28.125 27.5C28.125 28.0178 27.7053 28.4375 27.1875 28.4375H2.1875C1.66973 28.4375 1.25 28.0178 1.25 27.5C1.25 26.9823 1.66973 26.5625 2.1875 26.5625H2.8125V10.625C2.8125 8.86945 2.8125 7.99166 3.23383 7.3611C3.41622 7.08812 3.6506 6.85375 3.92357 6.67135C4.47511 6.30283 7.09451 6.25664 8.44627 6.25085C8.44113 6.6151 8.44118 6.99571 8.44123 7.38815L8.44124 7.50003V9.06253H5.3125C4.79473 9.06253 4.375 9.48226 4.375 10C4.375 10.5178 4.79473 10.9375 5.3125 10.9375H8.44124V12.8125H5.3125C4.79473 12.8125 4.375 13.2323 4.375 13.75C4.375 14.2678 4.79473 14.6875 5.3125 14.6875H8.44124V16.5625H5.3125C4.79473 16.5625 4.375 16.9823 4.375 17.5C4.375 18.0178 4.79473 18.4375 5.3125 18.4375H8.44124V26.5625H20.9412V18.4375H24.0625C24.5803 18.4375 25 18.0178 25 17.5C25 16.9823 24.5803 16.5625 24.0625 16.5625H20.9412V14.6875H24.0625C24.5803 14.6875 25 14.2678 25 13.75C25 13.2323 24.5803 12.8125 24.0625 12.8125H20.9412V10.9375H24.0625C24.5803 10.9375 25 10.5178 25 10C25 9.48226 24.5803 9.06253 24.0625 9.06253H20.9412V7.50003L20.9412 7.38817C20.9412 6.99572 20.9413 6.6151 20.9361 6.25085C22.2879 6.25664 24.8999 6.30283 25.4514 6.67135C25.7244 6.85375 25.9588 7.08812 26.1412 7.3611Z" fill="#5A4BD2"/>
<path fill-rule="evenodd" clip-rule="evenodd" d="M13.4375 2.5H15.9375C18.2945 2.5 19.473 2.5 20.2053 3.23223C20.9375 3.96447 20.9375 5.14298 20.9375 7.5V26.5625H22.8125H26.5625H27.1875C27.7053 26.5625 28.125 26.9822 28.125 27.5C28.125 28.0178 27.7053 28.4375 27.1875 28.4375H2.1875C1.66973 28.4375 1.25 28.0178 1.25 27.5C1.25 26.9822 1.66973 26.5625 2.1875 26.5625H2.8125H6.5625H8.4375V7.5C8.4375 5.14298 8.4375 3.96447 9.16973 3.23223C9.90197 2.5 11.0805 2.5 13.4375 2.5ZM14.6875 22.8125C15.2053 22.8125 15.625 23.2322 15.625 23.75V26.5625H13.75V23.75C13.75 23.2322 14.1697 22.8125 14.6875 22.8125ZM12.1875 17.5C11.6697 17.5 11.25 17.9197 11.25 18.4375C11.25 18.9553 11.6697 19.375 12.1875 19.375H17.1875C17.7053 19.375 18.125 18.9553 18.125 18.4375C18.125 17.9197 17.7053 17.5 17.1875 17.5H12.1875ZM11.25 14.6875C11.25 14.1697 11.6697 13.75 12.1875 13.75H17.1875C17.7053 13.75 18.125 14.1697 18.125 14.6875C18.125 15.2053 17.7053 15.625 17.1875 15.625H12.1875C11.6697 15.625 11.25 15.2053 11.25 14.6875ZM12.1875 10.625C11.6697 10.625 11.25 11.0447 11.25 11.5625C11.25 12.0803 11.6697 12.5 12.1875 12.5H17.1875C17.7053 12.5 18.125 12.0803 18.125 11.5625C18.125 11.0447 17.7053 10.625 17.1875 10.625H12.1875ZM11.25 7.8125C11.25 7.29473 11.6697 6.875 12.1875 6.875H17.1875C17.7053 6.875 18.125 7.29473 18.125 7.8125C18.125 8.33027 17.7053 8.75 17.1875 8.75H12.1875C11.6697 8.75 11.25 8.33027 11.25 7.8125Z" fill="#5A4BD2"/>
</svg>
